<?xml version="1.0" encoding="UTF-8"?>
<svg id="Layer_1" xmlns="http://www.w3.org/2000/svg" width="666" height="666" baseProfile="tiny" version="1.2" viewBox="0 0 667.8 666.2">
  <path d="M651.9,291.3c-57.4-67.2-63.5-59.9-60.3-151.3-12.4-105-112.1-38.4-163-79.7-37.9-31.7-83.7-87.3-136.3-45-23.3,18-62.1,62.4-94.7,60.3-52.6-1.4-118.5-6.8-122.3,64.3-.4,27.5,5.4,76.7-15,98.7-80,88.9-80.7,99.7,0,189.3,20.5,22.1,14.3,71.1,15,98.3,4,70.8,69.1,65.9,122,64.3,32.3-2,72.3,42.6,95.3,60.3,52.6,42.1,98.3-13,136.3-45,51.2-41.2,151.1,25.2,163.3-79.7.8-27.9-5.7-76.4,15.3-98.7,31.7-37.7,87.7-84.4,44.3-136.3ZM308.9,300.9c0-13.7,11.3-25,25-25s25,11.3,25,25v161c-.7,32.8-49.3,32.9-50,0,0,0,0-161,0-161ZM367.3,203.9c-.8,43.8-66.1,43.8-66.7,0,.8-43.8,66.1-43.8,66.7,0Z" fill="#2e9494"/>
</svg>
